<svg enable-background="new 0 0 50 50" viewBox="0 0 50 50"><path d="M48.50774,48.24505c-0.17,0.5199-0.73,0.8099-1.26,0.6399c-30.72-9.97-39.82-3.07-42.81-0.8001
		c-0.63,0.4701-1.23,0.9202-1.83,0.9202c-0.26,0-0.51-0.0801-0.77-0.2701c-0.44-0.33-0.53-0.96-0.2-1.4001
		c0.23-0.3099,0.6-0.4399,0.96-0.3899c0.16-0.1001,0.42-0.3,0.63-0.46c1.64-1.2399,5.02-3.79,12.2-4.58v-2.51
		c-4.38-0.5-7.8-4.22-7.8-8.73c0-0.5601,0.45-1,1-1c2.74,0,5.18,1.26,6.8,3.22v-1.59c-4.38-0.5-7.8-4.22-7.8-8.74
		c0-0.5499,0.45-1,1-1c2.74,0,5.18,1.26,6.8,3.23v-1.59c-4.38-0.5-7.8-4.23-7.8-8.74c0-0.55,0.45-1,1-1c2.74,0,5.18,1.26,6.8,3.22
		v-1.69c-3.56-3.8801-3.47-9.93,0.29-13.69c0.39-0.4,1.02-0.4,1.42,0c3.76,3.76,3.85,9.8099,0.29,13.69v1.54
		c1.61-1.97,4.06-3.22,6.79-3.22c0.27,0,0.52,0.1,0.71,0.2899c0.19,0.1901,0.29,0.4401,0.29,0.7101c0,4.51-3.41,8.23-7.79,8.73
		v1.5899c1.61-1.9599,4.06-3.2199,6.79-3.2199c0.27,0,0.52,0.11,0.71,0.29c0.19,0.19,0.29,0.45,0.29,0.71
		c0,4.51-3.41,8.24-7.79,8.73v1.59c1.61-1.96,4.06-3.2199,6.79-3.2199c0.27,0,0.52,0.1098,0.71,0.2999
		c0.19,0.18,0.29,0.4401,0.29,0.7001c0,4.5099-3.41,8.24-7.79,8.74v2.4899c4.2-0.2399,9.56,0.0999,16.36,1.48v-2.08
		c-3.95-0.49-7.01-3.86-7.01-7.94c0-0.55,0.45-1,1-1c0.99,0,1.93,0.19,2.8,0.52c-2.28-1.42-3.8-3.94-3.8-6.81c0-0.5501,0.45-1,1-1
		c0.99,0,1.93,0.1899,2.8,0.52c-2.27-1.4199-3.8-3.9299-3.8-6.8101c0-0.5499,0.45-1,1-1c2.39,0,4.54,1.0601,6.01,2.73v-1.2099
		c-1.51-1.67-2.35-3.7901-2.35-6.06c0-2.4,0.94-4.67,2.64-6.37c0.39-0.39,1.03-0.39,1.42,0c3.41,3.4099,3.5,8.8899,0.29,12.43v1.08
		c1.47-1.67,3.62-2.74,6.01-2.74c0.56,0,1,0.45,1,1c0,2.8799-1.52,5.3999-3.8,6.81c0.87-0.33,1.81-0.52,2.8-0.52c0.56,0,1,0.45,1,1
		c0,2.88-1.52,5.39-3.8,6.81c0.87-0.3299,1.81-0.52,2.8-0.52c0.56,0,1,0.4501,1,1c0,4.08-3.06,7.4501-7.01,7.9401v2.6499
		c3.63,0.81,7.63,1.89,12.08,3.34C48.39774,47.15495,48.68774,47.71495,48.50774,48.24505z"/></svg>