<svg enable-background="new 0 0 512 512" viewBox="0 0 512 512"><path d="M507.299,179.165c-16.644-2.162-37.719-5.566-52.958-12.43c-2.594-1.135-5.728-0.054-7.025,2.54c-10.808,21.399-24.588,41.394-42.204,60.956c9.511,20.427,14.698,42.799,14.698,65.874c0,31.018-9.349,60.847-26.208,86.3c14.861-2.054,28.047-7.187,38.098-15.184c18.663-14.799,21.183-31.927,21.183-53.067c0.37-57.623,9.022-97.51,56.417-124.937C513.808,186.534,512.352,179.871,507.299,179.165z"/><path d="M341.67 172.95c-.918-.595-1.945-.864-3.026-.864H166.476c-1.081 0-2.108.27-3.026.864-15.054 10.017-27.889 22.359-38.231 36.284-19.328-4.957-27.951-33.045-67.307-27.475-42.818 6.058-64.813 60.35-55.984 95.486 12.414 49.249 76.911 75.244 122.414 104.618 10.484 14.397 23.637 27.121 39.108 37.396.918.595 1.945.919 3.026.919h172.168c1.081 0 2.108-.324 3.026-.919 42.15-27.992 67.333-74.034 67.333-123.155C409.002 247.038 383.82 200.997 341.67 172.95zM75.582 314.64c-19.562-12.807-37.828-27.884-42.205-45.339-4.412-17.419 7.139-55.714 33.018-55.714 12.013 0 15.966 6.378 23.722 12.482-10.213 21.94-15.562 46.042-15.562 69.98C74.556 302.266 74.879 308.48 75.582 314.64zM350.478 426.339c-3.293 2.323-6.352 4.647-11.835 4.647H166.475c-5.676 0-8.862-2.666-11.835-4.647l-7.511 15.022c-1.815 3.754.899 7.836 4.81 7.836h201.241c4.133 0 6.599-4.367 4.81-7.836L350.478 426.339zM356.855 145.661h-7.867c-4.123-24.224-35.769-43.298-77.817-47.68 2.431-3.62 3.89-7.997 3.89-12.645 0-12.429-10.105-22.534-22.481-22.534-12.375 0-22.481 10.105-22.481 22.534 0 4.648 1.459 9.025 3.89 12.645-42.046 4.381-73.694 23.456-77.817 47.68h-7.911c-5.716 0-7.491 7.868-2.215 10.321 1.789.541 8.998 5.296 20.427 5.296h172.168c11.445 0 18.834-4.814 20.427-5.296C364.421 153.495 362.621 145.661 356.855 145.661z"/></svg>