<?xml version="1.0" encoding="UTF-8"?>
<svg version="1.1" viewBox="0 0 63.756 20.611" xmlns="http://www.w3.org/2000/svg">
 <g transform="translate(-61.402 -109.82)">
  <text transform="matrix(.26458 0 0 .26458 44.333 110.82)" fill="#000000" font-family="sans-serif" font-size="40px" style="line-height:1.25;shape-inside:url(#rect24864);white-space:pre" xml:space="preserve"/>
  <text transform="matrix(.26458 0 0 .26458 44.333 110.82)" fill="#000000" font-family="sans-serif" font-size="40px" style="line-height:1.25;shape-inside:url(#rect26022);white-space:pre" xml:space="preserve"/>
  <g transform="matrix(1.2751 0 0 1.2843 -3.73 -39.67)">
   <g transform="matrix(.047508 0 0 .047508 50.004 111.68)">
    <g clip-rule="evenodd" fill-rule="evenodd">
     <path d="m89.65 283.87-63.649 68.9h79.494l0.358-0.421 51.853-56.163c-9.851 0.291-19.801-0.356-29.849-1.912-12.606-1.977-25.341-5.445-38.207-10.404zm24.37-60.116-47.413 51.27h22.103c0.972 0 1.846 0.356 2.562 0.939 12.768 5.023 25.374 8.523 37.818 10.468 12.252 1.913 24.37 2.366 36.362 1.361l12.347-13.352h-24.823c-0.972-0.032-1.944-0.357-2.692-1.069-1.618-1.459-1.716-3.987-0.26-5.607l40.868-44.236c-12.413 4.99-25.117 7.551-38.046 7.583-12.737 0.032-25.701-2.431-38.826-7.357zm64.557-50.361h6.254l-33.414-40.479-32.179 40.479h4.699c0.323 0 0.614 0.031 0.905 0.097 0.748-0.162 1.559-0.13 2.334 0.194 8.686 3.468 17.175 5.186 25.44 5.153 8.233 0 16.365-1.718 24.37-5.121 0.52-0.227 1.04-0.323 1.591-0.323zm9.139 35.777c-2.106-0.129-3.794-1.848-3.794-3.985 0-1.103 0.456-2.074 1.168-2.788l4.861-5.898-12.445-14.453c-8.135 3.144-16.431 4.731-24.889 4.731-8.879 0.032-17.888-1.686-26.995-5.185l-27.546 33.477h14.841c0.614 0 1.201 0.13 1.751 0.39 12.996 5.185 25.731 7.745 38.176 7.713 12.508 0 24.823-2.625 36.913-7.778 2.007-0.843 4.341 0.098 5.215 2.107 0.165 0.42 0.26 0.842 0.292 1.295l8.882-9.625h-16.43zm199.44-35.681c0.292-0.065 0.583-0.097 0.905-0.097h4.699l-32.178-40.479-27.291 40.479h0.39c0.456 0.031 0.908 0.129 1.361 0.323 7.974 3.403 16.108 5.121 24.338 5.121 8.297 0.032 16.786-1.686 25.441-5.153 0.781-0.324 1.592-0.356 2.335-0.194zm10.21 41.969c0.516-0.26 1.102-0.39 1.716-0.39h14.842l-27.511-33.477c-9.143 3.499-18.152 5.217-27.031 5.185-8.457 0-16.754-1.588-24.889-4.731l-12.638 14.713 4.794 5.607c0.747 0.713 1.2 1.717 1.2 2.819 0 2.203-1.783 3.985-3.987 3.985h-16.234l9.107 9.853c0-0.519 0.094-1.037 0.322-1.522 0.842-2.01 3.176-2.95 5.188-2.107 12.118 5.153 24.401 7.778 36.909 7.778 12.445 0.032 25.185-2.528 38.212-7.713zm23.398 60.505c0.681-0.583 1.555-0.939 2.526-0.939h22.104l-47.383-51.27c-13.156 4.926-26.117 7.389-38.856 7.356-13.06-0.032-25.862-2.626-38.401-7.745l40.834 44.204c0.743 0.745 1.231 1.749 1.231 2.884 0 2.204-1.814 3.987-3.987 3.987h-24.857l12.314 13.352c12.09 1.005 24.307 0.583 36.622-1.361 12.444-1.945 25.05-5.445 37.853-10.468zm-14.456 76.807h79.694l-63.652-68.899c-12.831 4.959-25.602 8.427-38.208 10.403-10.111 1.588-20.158 2.203-30.072 1.912l51.723 55.969c0.192 0.194 0.354 0.388 0.515 0.615zm-30.431 45.986v-38.014h-11.988v38.014zm-91.194-242.9h7.551l-37.109-44.949-35.744 44.949h5.864c0.327 0 0.649 0.033 0.972 0.098 0.779-0.162 1.622-0.13 2.4 0.193 9.493 3.793 18.762 5.672 27.806 5.641 9.009 0 17.92-1.913 26.637-5.607 0.552-0.227 1.103-0.325 1.623-0.325zm12.153 45.76 0.031-0.031h0.032l0.066-0.033 0.031-0.032h0.031l0.032-0.032h0.066l0.031-0.033h0.032l0.066-0.031h0.031l0.032-0.033h0.097l0.032-0.032h0.097l0.063-0.032h0.066l0.063-0.033h0.066l0.032-0.032h0.195l0.063-0.032h0.61l16.499-0.033-31.6-36.686c-8.879 3.436-17.955 5.186-27.188 5.219-9.689 0-19.509-1.88-29.494-5.705l-28.743 34.938-1.85 2.234h16.884c0.649 0 1.232 0.163 1.751 0.422 14.196 5.64 28.129 8.426 41.71 8.394 13.623-3e-3 27.009-2.855 40.166-8.397zm25.472 65.82c0.744-0.648 1.653-0.939 2.594-0.939l24.822-0.032-52.238-56.552c-13.322 5.314-26.933 8.004-40.802 8.037-13.904 0.032-28.034-2.658-42.359-8.07l-52.274 56.585h24.857c0.972 0 1.846 0.356 2.562 0.939 23.008 9.075 45.596 13.547 67.729 13.515 22.072-0.033 43.785-4.57 65.109-13.483zm-134.46 7.844-70 75.769h276.08l-69.937-75.704c-21.844 8.912-44.108 13.481-66.794 13.514-22.748 0.033-45.854-4.44-69.35-13.579zm-51.498 86.865v38.014h12.023v-38.014z"/>
     <path d="m240.52 360.17v42.065h35.488l-0.6839-35.91z" stroke-width="5.5692"/>
     <path id="pines" d="m89.65 283.87-63.649 68.9h79.494l0.358-0.421 51.853-56.163c-9.851 0.291-19.801-0.356-29.849-1.912-12.606-1.977-25.341-5.445-38.207-10.404zm24.37-60.116-47.413 51.27h22.103c0.972 0 1.846 0.356 2.562 0.939 12.768 5.023 25.374 8.523 37.818 10.468 12.252 1.913 24.37 2.366 36.362 1.361l12.347-13.352h-24.823c-0.972-0.032-1.944-0.357-2.692-1.069-1.618-1.459-1.716-3.987-0.26-5.607l40.868-44.236c-12.413 4.99-25.117 7.551-38.046 7.583-12.737 0.032-25.701-2.431-38.826-7.357zm64.557-50.361h6.254l-33.414-40.479-32.179 40.479h4.699c0.323 0 0.614 0.031 0.905 0.097 0.748-0.162 1.559-0.13 2.334 0.194 8.686 3.468 17.175 5.186 25.44 5.153 8.233 0 16.365-1.718 24.37-5.121 0.52-0.227 1.04-0.323 1.591-0.323zm9.139 35.777c-2.106-0.129-3.794-1.848-3.794-3.985 0-1.103 0.456-2.074 1.168-2.788l4.861-5.898-12.445-14.453c-8.135 3.144-16.431 4.731-24.889 4.731-8.879 0.032-17.888-1.686-26.995-5.185l-27.546 33.477h14.841c0.614 0 1.201 0.13 1.751 0.39 12.996 5.185 25.731 7.745 38.176 7.713 12.508 0 24.823-2.625 36.913-7.778 2.007-0.843 4.341 0.098 5.215 2.107 0.165 0.42 0.26 0.842 0.292 1.295l8.882-9.625h-16.43zm199.44-35.681c0.292-0.065 0.583-0.097 0.905-0.097h4.699l-32.178-40.479-27.291 40.479h0.39c0.456 0.031 0.908 0.129 1.361 0.323 7.974 3.403 16.108 5.121 24.338 5.121 8.297 0.032 16.786-1.686 25.441-5.153 0.781-0.324 1.592-0.356 2.335-0.194zm10.21 41.969c0.516-0.26 1.102-0.39 1.716-0.39h14.842l-27.511-33.477c-9.143 3.499-18.152 5.217-27.031 5.185-8.457 0-16.754-1.588-24.889-4.731l-12.638 14.713 4.794 5.607c0.747 0.713 1.2 1.717 1.2 2.819 0 2.203-1.783 3.985-3.987 3.985h-16.234l9.107 9.853c0-0.519 0.094-1.037 0.322-1.522 0.842-2.01 3.176-2.95 5.188-2.107 12.118 5.153 24.401 7.778 36.909 7.778 12.445 0.032 25.185-2.528 38.212-7.713zm23.398 60.505c0.681-0.583 1.555-0.939 2.526-0.939h22.104l-47.383-51.27c-13.156 4.926-26.117 7.389-38.856 7.356-13.06-0.032-25.862-2.626-38.401-7.745l40.834 44.204c0.743 0.745 1.231 1.749 1.231 2.884 0 2.204-1.814 3.987-3.987 3.987h-24.857l12.314 13.352c12.09 1.005 24.307 0.583 36.622-1.361 12.444-1.945 25.05-5.445 37.853-10.468zm-14.456 76.807h79.694l-63.652-68.899c-12.831 4.959-25.602 8.427-38.208 10.403-10.111 1.588-20.158 2.203-30.072 1.912l51.723 55.969c0.192 0.194 0.354 0.388 0.515 0.615zm-121.62-196.91h7.551l-37.109-44.949-35.744 44.949h5.864c0.327 0 0.649 0.033 0.972 0.098 0.779-0.162 1.622-0.13 2.4 0.193 9.493 3.793 18.762 5.672 27.806 5.641 9.009 0 17.92-1.913 26.637-5.607 0.552-0.227 1.103-0.325 1.623-0.325zm12.153 45.76 0.031-0.031h0.032l0.066-0.033 0.031-0.032h0.031l0.032-0.032h0.066l0.031-0.033h0.032l0.066-0.031h0.031l0.032-0.033h0.097l0.032-0.032h0.097l0.063-0.032h0.066l0.063-0.033h0.066l0.032-0.032h0.195l0.063-0.032h0.61l16.499-0.033-31.6-36.686c-8.879 3.436-17.955 5.186-27.188 5.219-9.689 0-19.509-1.88-29.494-5.705l-28.743 34.938-1.85 2.234h16.884c0.649 0 1.232 0.163 1.751 0.422 14.196 5.64 28.129 8.426 41.71 8.394 13.623-3e-3 27.009-2.855 40.166-8.397zm25.472 65.82c0.744-0.648 1.653-0.939 2.594-0.939l24.822-0.032-52.238-56.552c-13.322 5.314-26.933 8.004-40.802 8.037-13.904 0.032-28.034-2.658-42.359-8.07l-52.274 56.585h24.857c0.972 0 1.846 0.356 2.562 0.939 23.008 9.075 45.596 13.547 67.729 13.515 22.072-0.033 43.785-4.57 65.109-13.483zm-134.46 7.844-70 75.769h276.08l-69.937-75.704c-21.844 8.912-44.108 13.481-66.794 13.514-22.748 0.033-45.854-4.44-69.35-13.579z"/>
    </g>
   </g>
  </g>
  <g stroke-width=".26458" aria-label="Carpatian">
   <path d="m89.143 120.02q-0.78314 0-1.2805-0.38099-0.48682-0.38098-0.71964-0.97363-0.22224-0.60323-0.22224-1.2488 0-0.83605 0.25399-1.6721 0.25399-0.84664 0.69848-1.6086 0.44449-0.77256 1.0054-1.3652 0.57148-0.59265 1.2065-0.93131 0.64556-0.34924 1.2805-0.34924 0.45507 0 0.75139 0.21166 0.30691 0.21166 0.30691 0.73023 0 0.31749-0.11641 0.70906-0.10583 0.39157-0.29632 0.75139-0.17991 0.35983-0.41274 0.59265-0.22224 0.23283-0.45507 0.23283-0.09525 0-0.20108-0.0635-0.10583-0.0741-0.19049-0.23282 0.15874-0.17992 0.34924-0.44449 0.20108-0.26458 0.38099-0.5609t0.29632-0.57148q0.11641-0.28574 0.11641-0.50799 0-0.19049-0.11641-0.3069-0.10583-0.127-0.38099-0.127-0.45507 0-0.95247 0.35982-0.48682 0.35982-0.94189 0.96306-0.45507 0.59264-0.82547 1.3334-0.3704 0.73023-0.58206 1.5134-0.21166 0.77256-0.21166 1.471 0 0.50798 0.14816 0.97364 0.14816 0.46565 0.48682 0.75139 0.33866 0.29632 0.87839 0.29632 0.57148 0 1.1324-0.31749t1.0266-0.83605q0.47624-0.51857 0.76198-1.1218l0.23283 0.15874q-0.3704 0.69848-0.87839 1.2911-0.50798 0.58206-1.1535 0.9313-0.63498 0.34924-1.3758 0.34924z"/>
   <path d="m92.636 119.59q-0.33866 0-0.58206-0.23282-0.25399-0.22225-0.25399-0.67732 0-0.38098 0.16933-0.81489 0.16933-0.4339 0.46565-0.85722t0.67731-0.77256 0.80431-0.5609q0.4339-0.21166 0.85722-0.21166 0.44449 0 0.74081 0.23283 0.30691 0.22224 0.30691 0.59265 0 0.28574-0.17991 0.40215t-0.44449 0.0741q0.02117-0.0847 0.03175-0.17991 0.02117-0.10583 0.02117-0.20108 0-0.22224-0.09525-0.39157t-0.3704-0.16933q-0.29632 0-0.60323 0.20108t-0.59265 0.52915-0.50798 0.71965q-0.22224 0.39157-0.34924 0.77255-0.127 0.38099-0.127 0.67732 0 0.35982 0.26458 0.35982 0.24341 0 0.52915-0.23283 0.29632-0.23282 0.59265-0.59265 0.30691-0.35982 0.58206-0.73022 0.27516-0.38099 0.47624-0.66673 0.04233-0.0529 0.07408-0.0529 0.05291 0.0106 0.16933 0.0529 0.11641 0.0317 0.21166 0.0952 0.09525 0.0635 0.09525 0.16932 0 0.10583-0.09525 0.27516-0.09525 0.15875-0.21166 0.35982-0.11641 0.20108-0.21166 0.40216-0.09525 0.20107-0.09525 0.39157 0 0.13758 0.07408 0.27516 0.08466 0.12699 0.26458 0.12699 0.26458 0 0.71964-0.38099 0.46565-0.39157 0.94189-1.27l0.16933 0.16933q-0.24341 0.57148-0.60323 1.0054-0.34924 0.4339-0.74081 0.67731-0.39157 0.25399-0.78314 0.25399-0.42332 0-0.6244-0.26457-0.20108-0.254-0.22224-0.5609 0-0.0317 0-0.0635 0.01058-0.0423 0.01058-0.0741-0.4339 0.53973-0.79372 0.83606-0.35982 0.3069-0.76198 0.3069z"/>
   <path d="m98.657 119.37q-0.38099 0-0.61381-0.20108-0.23283-0.20107-0.23283-0.53973 0-0.29632 0.14816-0.63498 0.14816-0.34924 0.29632-0.67731 0.15874-0.33866 0.15874-0.60323 0-0.27516-0.17991-0.43391-0.16933-0.16932-0.3704-0.28574-0.24341 0.60323-0.52915 1.1536-0.27516 0.55032-0.45507 0.84664l-0.13758-0.26458q0.14816-0.27515 0.39157-0.78314 0.24341-0.51856 0.46565-1.1641-0.10583-0.10583-0.10583-0.27516 0-0.28574 0.16933-0.51856 0.17991-0.23283 0.31749-0.23283 0.11641 0 0.15874 0.13758 0.05291 0.127 0.05291 0.17991 0 0.0529-0.05291 0.20108-0.05291 0.13758-0.0635 0.19049 0 0.127 0.16933 0.24341 0.17991 0.10583 0.39157 0.26458 0.22224 0.14816 0.39157 0.3704 0.16933 0.21166 0.16933 0.55032 0 0.31749-0.13758 0.63498t-0.27516 0.60323-0.13758 0.48682q0 0.16932 0.08466 0.22224 0.08466 0.0529 0.20108 0.0529 0.25399 0 0.52915-0.15874 0.27516-0.15875 0.52915-0.40215 0.26457-0.24341 0.46565-0.50799 0.20108-0.27516 0.30691-0.4974l0.21166 0.15875q-0.20108 0.45506-0.57148 0.88897-0.37041 0.4339-0.82548 0.71964-0.45507 0.27516-0.92072 0.27516z"/>
   <path d="m99.917 122.06q-0.08466 0-0.16933-0.0635-0.09525-0.0635-0.15874-0.13758-0.0635-0.0741-0.0635-0.10583 0.22224-0.68789 0.39157-1.2065 0.16932-0.50798 0.3069-0.98422 0.127-0.47623 0.24341-1.0266 0.11642-0.5609 0.23283-1.3123 0.11641-0.76198 0.24341-1.852 0.0212-0.11642 0.0529-0.16933 0.0318-0.0529 0.1905-0.0529 0.3069 0 0.44448 0.16933t0.13758 0.37041q0 0.11641-0.0529 0.42332-0.0423 0.29632-0.127 0.71964 0.19049-0.32807 0.45507-0.6244 0.26457-0.3069 0.59265-0.50798 0.32807-0.20108 0.70906-0.20108 0.50798 0 0.82547 0.34924 0.32808 0.33866 0.32808 0.89956 0 0.41273-0.1905 0.87838-0.17991 0.45507-0.51857 0.86781-0.32807 0.40215-0.8043 0.65615-0.46566 0.26457-1.0266 0.26457-0.31749 0-0.50799-0.0847-0.19049-0.0741-0.19049-0.15875 0-0.0635 0.0741-0.0741 0.0847-0.0212 0.17991-0.0212 0.47623 0 0.86781-0.20108 0.40215-0.21166 0.69847-0.53973 0.30691-0.32808 0.46566-0.70907 0.16932-0.38098 0.16932-0.76197 0-0.31749-0.14816-0.55032-0.13758-0.24341-0.44448-0.24341-0.27516 0-0.55032 0.17991-0.26458 0.16933-0.4974 0.43391-0.23283 0.25399-0.41274 0.53973t-0.27516 0.50798q-0.20107 0.73023-0.38098 1.4287-0.16933 0.70906-0.32808 1.3017-0.14816 0.60323-0.29632 1.0054-0.15875 0.40216-0.30691 0.52915-0.0741 0.0635-0.15874 0.0635z"/>
   <path d="m105.39 119.59q-0.33866 0-0.58207-0.23282-0.25399-0.22225-0.25399-0.67732 0-0.38098 0.16933-0.81489 0.16933-0.4339 0.46565-0.85722 0.29633-0.42332 0.67731-0.77256 0.38099-0.34924 0.80431-0.5609 0.4339-0.21166 0.85722-0.21166 0.44449 0 0.74081 0.23283 0.30691 0.22224 0.30691 0.59265 0 0.28574-0.17991 0.40215t-0.44449 0.0741q0.0212-0.0847 0.0318-0.17991 0.0212-0.10583 0.0212-0.20108 0-0.22224-0.0953-0.39157-0.0952-0.16933-0.3704-0.16933-0.29633 0-0.60323 0.20108-0.30691 0.20108-0.59265 0.52915t-0.50799 0.71965q-0.22224 0.39157-0.34923 0.77255-0.127 0.38099-0.127 0.67732 0 0.35982 0.26457 0.35982 0.24341 0 0.52915-0.23283 0.29633-0.23282 0.59265-0.59265 0.30691-0.35982 0.58207-0.73022 0.27516-0.38099 0.47623-0.66673 0.0423-0.0529 0.0741-0.0529 0.0529 0.0106 0.16933 0.0529 0.11641 0.0317 0.21166 0.0952 0.0952 0.0635 0.0952 0.16932 0 0.10583-0.0952 0.27516-0.0953 0.15875-0.21166 0.35982-0.11641 0.20108-0.21166 0.40216-0.0952 0.20107-0.0952 0.39157 0 0.13758 0.0741 0.27516 0.0847 0.12699 0.26457 0.12699 0.26458 0 0.71964-0.38099 0.46566-0.39157 0.94189-1.27l0.16933 0.16933q-0.24341 0.57148-0.60323 1.0054-0.34924 0.4339-0.74081 0.67731-0.39157 0.25399-0.78314 0.25399-0.42332 0-0.6244-0.26457-0.20108-0.254-0.22224-0.5609 0-0.0317 0-0.0635 0.0106-0.0423 0.0106-0.0741-0.4339 0.53973-0.79373 0.83606-0.35982 0.3069-0.76197 0.3069z"/>
   <path d="m110.44 119.58q-0.46565 0-0.74081-0.27516-0.26458-0.26457-0.26458-0.81489 0-0.44449 0.16933-1.1006 0.16933-0.65615 0.42332-1.3546-0.0847-0.0212-0.19049-0.0317-0.0953-0.0212-0.17991-0.0635v-0.28574q0.13758 0.0212 0.24341 0.0318 0.11641 0.0106 0.24341 0.0212 0.22224-0.5609 0.47623-1.09 0.26458-0.52915 0.51857-0.94189 0.25399-0.41273 0.48682-0.65614 0.23282-0.24341 0.40215-0.24341 0.10583 0 0.19049 0.0741 0.0847 0.0741 0.0847 0.21166 0 0.20108-0.22225 0.60323-0.21166 0.39157-0.53973 0.93131-0.31749 0.52915-0.61381 1.143 0.0847 0 0.16933 0 0.0952 0 0.17991 0 0.42332 0 0.8043-0.0106 0.38099-0.0212 0.77256-0.0635v0.29632q-0.58206 0.0635-1.0689 0.0953-0.47623 0.0318-0.88897 0.0318-0.0318 0-0.0741 0-0.0317 0-0.0635 0-0.23283 0.53973-0.40215 1.1006-0.15875 0.5609-0.15875 1.09 0 0.44449 0.13758 0.63498 0.13758 0.17991 0.44449 0.17991 0.52915 0 1.0795-0.48682 0.55032-0.48681 0.95247-1.3123l0.14816 0.10583q-0.26457 0.61382-0.66673 1.1112-0.40215 0.4974-0.87838 0.78314-0.46566 0.28574-0.97364 0.28574z"/>
   <path d="m113.35 119.4c-0.29632 0-0.51856-0.0917-0.66673-0.27516-0.14816-0.17638-0.22224-0.3951-0.22224-0.65615 0-0.16227 0.0282-0.36687 0.0847-0.61381 0.0565-0.24693 0.13408-0.50445 0.23283-0.77256 0.10583-0.27516 0.22577-0.53268 0.35982-0.77256s0.27516-0.4339 0.42332-0.58206c0.15522-0.15522 0.30691-0.23283 0.45507-0.23283 0.0776 0 0.14463 0.0247 0.20108 0.0741 0.0635 0.0494 0.0952 0.11995 0.0952 0.21166 0 0.0917-0.0564 0.2293-0.16933 0.41274-0.10583 0.18344-0.23283 0.39863-0.38099 0.64556-0.14816 0.23988-0.27868 0.49035-0.39157 0.7514-0.10583 0.26105-0.15875 0.51151-0.15875 0.75139 0 0.23283 0.0423 0.38804 0.127 0.46565 0.0847 0.0776 0.20813 0.11641 0.3704 0.11641 0.23989 0 0.49741-0.11994 0.77256-0.35982 0.28221-0.23988 0.57501-0.65967 0.87839-1.2594l0.13758 0.14817c-0.23283 0.62087-0.54326 1.1006-0.9313 1.4393-0.38099 0.33866-0.78667 0.50799-1.217 0.50799zm1.2594-4.8047c-0.12699 0-0.24341-0.0317-0.34924-0.0952-0.0988-0.0635-0.14816-0.15878-0.14816-0.28574 0-0.16933 0.0882-0.31043 0.26457-0.42332 0.18344-0.11994 0.36321-0.17525 0.5609-0.17991 0.11991-3e-3 -0.073 0.32137 5e-3 0.37783 0.0776 0.0565 0.40808-0.14106 0.40808-7e-3 0 0.14817-0.0776 0.28927-0.23283 0.42332-0.15521 0.127-0.32454 0.1905-0.50798 0.1905z"/>
   <path d="m115.66 119.59q-0.33866 0-0.58207-0.23282-0.25399-0.22225-0.25399-0.67732 0-0.38098 0.16933-0.81489 0.16933-0.4339 0.46565-0.85722 0.29633-0.42332 0.67731-0.77256 0.38099-0.34924 0.80431-0.5609 0.4339-0.21166 0.85722-0.21166 0.44449 0 0.74081 0.23283 0.30691 0.22224 0.30691 0.59265 0 0.28574-0.17991 0.40215t-0.44449 0.0741q0.0212-0.0847 0.0318-0.17991 0.0212-0.10583 0.0212-0.20108 0-0.22224-0.0952-0.39157t-0.3704-0.16933q-0.29633 0-0.60323 0.20108-0.30691 0.20108-0.59265 0.52915t-0.50799 0.71965q-0.22224 0.39157-0.34923 0.77255-0.127 0.38099-0.127 0.67732 0 0.35982 0.26457 0.35982 0.24341 0 0.52915-0.23283 0.29633-0.23282 0.59265-0.59265 0.30691-0.35982 0.58207-0.73022 0.27516-0.38099 0.47623-0.66673 0.0423-0.0529 0.0741-0.0529 0.0529 0.0106 0.16933 0.0529 0.11641 0.0317 0.21166 0.0952 0.0952 0.0635 0.0952 0.16932 0 0.10583-0.0952 0.27516-0.0953 0.15875-0.21166 0.35982-0.11641 0.20108-0.21166 0.40216-0.0952 0.20107-0.0952 0.39157 0 0.13758 0.0741 0.27516 0.0847 0.12699 0.26457 0.12699 0.26458 0 0.71964-0.38099 0.46566-0.39157 0.94189-1.27l0.16933 0.16933q-0.24341 0.57148-0.60323 1.0054-0.34924 0.4339-0.74081 0.67731-0.39157 0.25399-0.78314 0.25399-0.42332 0-0.6244-0.26457-0.20108-0.254-0.22224-0.5609 0-0.0317 0-0.0635 0.0106-0.0423 0.0106-0.0741-0.4339 0.53973-0.79373 0.83606-0.35982 0.3069-0.76197 0.3069z"/>
   <path d="m123.28 119.31q-0.39157 0-0.60323-0.20108-0.20108-0.20107-0.20108-0.50798 0-0.22224 0.0741-0.45507 0.0741-0.24341 0.14817-0.48682 0.0741-0.25399 0.0741-0.48681 0-0.254-0.11642-0.34924-0.11641-0.0952-0.27515-0.0952-0.31749 0-0.65615 0.26457-0.32807 0.26458-0.64556 0.66673-0.31749 0.39157-0.59265 0.82548-0.27516 0.4339-0.47624 0.77256-0.19049 0-0.35982-0.0635t-0.28574-0.22224q0.0106-0.0529 0.127-0.31749 0.10583-0.27516 0.24341-0.65615 0.13757-0.39157 0.2434-0.80431 0.11642-0.41274 0.11642-0.76197 0.0741-0.0741 0.22224-0.15875 0.14816-0.0847 0.30691-0.0847 0.33865 0 0.33865 0.3069 0 0.13758-0.0635 0.44449-0.0635 0.29632-0.16933 0.65615 0.27516-0.39158 0.61381-0.7514 0.33866-0.3704 0.70906-0.60323 0.37041-0.23282 0.7514-0.23282 0.4339 0 0.63498 0.3069 0.21166 0.29633 0.21166 0.66673 0 0.31749-0.10583 0.60323-0.10583 0.27516-0.21166 0.52915-0.0952 0.24341-0.0952 0.48682 0 0.17991 0.0741 0.26458 0.0847 0.0741 0.20108 0.0741 0.25399 0 0.51856-0.24341 0.27516-0.25399 0.51857-0.6244 0.25399-0.38099 0.44449-0.76198l0.15874 0.13758q-0.22224 0.51857-0.4974 0.94189t-0.61381 0.67731q-0.33866 0.24341-0.76198 0.24341z"/>
  </g>
  <g stroke-width=".26458" aria-label="Shop">
   <path d="m91.991 128.39c-0.381 0-0.74083-0.0706-1.0795-0.21167-0.33867-0.13405-0.61383-0.34219-0.8255-0.62441-0.20461-0.28223-0.30692-0.63499-0.30692-1.0583 0-0.36689 0.07056-0.65264 0.21167-0.85725 0.14817-0.20461 0.32808-0.34925 0.53975-0.43392 0.21167-0.0847 2.6389 1.401 2.8294 1.401-0.1905 0.20461-2.5613-1.0976-2.6601-0.85071-0.09878 0.24695-0.14817 0.49389-0.14817 0.74084 0 0.26105 0.05644 0.50447 0.16933 0.73024 0.11995 0.22578 0.29986 0.4057 0.53975 0.53975 0.23989 0.14111 0.54327 0.21167 0.91016 0.21167 0.3175 0 0.62794-0.06 0.93133-0.17992 0.30339-0.11289 0.55033-0.28222 0.74083-0.508 0.19755-0.23283 0.29633-0.51858 0.29633-0.85724 0-0.30339-0.07761-0.56445-0.23283-0.78317s-0.3563-0.41275-0.60325-0.58208c-0.23989-0.16933-0.49741-0.33161-0.77258-0.48683s-0.53622-0.3175-0.78316-0.48683c-0.23989-0.17639-0.43744-0.37748-0.59266-0.60325-0.15522-0.22578-0.23283-0.49742-0.23283-0.81492 0-0.29633 0.07056-0.60677 0.21167-0.93133 0.14111-0.32455 0.3422-0.63147 0.60325-0.92074 0.26811-0.28928 0.58561-0.52211 0.9525-0.6985 0.37395-0.18345 0.79021-0.27517 1.2488-0.27517 0.41627 0 0.70555 0.10231 0.86783 0.30692 0.16228 0.19755 0.24342 0.44802 0.24342 0.75141 0 0.254-0.04586 0.52917-0.13758 0.8255-0.08467 0.28928-0.1905 0.56797-0.3175 0.83608-0.127 0.26105-0.24694 0.4833-0.35983 0.66675-0.127-0.0282-0.21872-0.0811-0.27517-0.15875-0.04939-0.0847-0.07408-0.18344-0.07408-0.29633 0-0.14817 0.03175-0.3175 0.09525-0.508s0.13406-0.38806 0.21167-0.59267c0.08467-0.20461 0.15875-0.40216 0.22225-0.59266 0.0635-0.19755 0.09525-0.37394 0.09525-0.52917 0-0.14111-0.04233-0.25047-0.127-0.32808-0.08467-0.0847-0.23989-0.127-0.46566-0.127-0.33161 0-0.63853 0.0776-0.92075 0.23283s-0.52916 0.35631-0.74083 0.60325c-0.21167 0.23989-0.37747 0.49389-0.49742 0.762-0.11289 0.26811-0.16933 0.51153-0.16933 0.73025 0 0.26105 0.07408 0.48683 0.22225 0.67733 0.15522 0.18345 0.35277 0.35278 0.59266 0.508 0.23989 0.14817 0.49389 0.29986 0.762 0.45508 0.27517 0.14817 0.53269 0.31397 0.77258 0.49741 0.23989 0.18345 0.43391 0.40217 0.58208 0.65617 0.15522 0.24694 0.23283 0.55033 0.23283 0.91016 0 0.36689-0.08114 0.69144-0.24342 0.97367-0.16228 0.27517-0.381 0.508-0.65616 0.69849-0.26811 0.1905-0.56444 0.33514-0.889 0.43392-0.32456 0.0988-0.64911 0.14817-0.97366 0.14817z"/>
   <path d="m96.013 127.87q-0.20108 0-0.3175-0.33866-0.11642-0.33867-0.11642-0.762 0-0.508 0.16933-1.2065 0.16933-0.69849 0.4445-1.4711t0.61383-1.5134q0.34925-0.74083 0.70908-1.3441 0.35983-0.60325 0.67733-0.96308 0.3175-0.35984 0.55033-0.35984 0.1905 0 0.26458 0.23284 0.08467 0.22224 0.08467 0.43391 0 0.29633-0.13758 0.71967-0.127 0.42333-0.35983 0.91016-0.23283 0.47625-0.53975 0.94191-0.30692 0.46567-0.66675 0.85725-0.35983 0.381-0.73025 0.60325-0.127 0.30691-0.22225 0.68791-0.08467 0.381-0.127 0.75142-0.04233 0.35983-0.04233 0.64558 0 0.11641 0 0.20108 0.01058 0.0847 0.02117 0.15875 0.14817-0.43392 0.3175-0.83608 0.17992-0.41275 0.381-0.75141 0.20108-0.34925 0.42333-0.60325 0.23283-0.26459 0.48683-0.40217 0.254-0.14816 0.53975-0.14816 0.29633 0 0.46566 0.14816 0.17992 0.13758 0.254 0.35983 0.08467 0.21167 0.08467 0.4445 0 0.32808-0.11642 0.635-0.10583 0.30692-0.22225 0.59267-0.11642 0.28574-0.11642 0.55033 0 0.21166 0.08467 0.30691 0.09525 0.0953 0.23283 0.0953 0.24342 0 0.53975-0.23283 0.30692-0.23283 0.60325-0.61383 0.29633-0.39158 0.508-0.84667l0.13758 0.127q-0.22225 0.51859-0.53975 0.94192-0.3175 0.41275-0.6985 0.65616-0.381 0.24342-0.79375 0.24342-0.35983 0-0.55033-0.1905-0.17992-0.1905-0.17992-0.47625 0-0.22225 0.08467-0.49741 0.08467-0.27517 0.15875-0.56092 0.08467-0.28575 0.08467-0.53975 0-0.27516-0.11642-0.39158t-0.28575-0.11642q-0.26458 0-0.47625 0.21167t-0.39158 0.55033q-0.16933 0.32808-0.32808 0.6985-0.14817 0.37041-0.28575 0.70908-0.13758 0.32808-0.27517 0.53975-0.13758 0.21166-0.28575 0.21166zm0.78316-3.6724q0.29633-0.23283 0.5715-0.59267 0.28575-0.35983 0.52916-0.76199 0.24342-0.41275 0.43392-0.80433 0.1905-0.39159 0.29633-0.70908 0.10583-0.3175 0.10583-0.47625 0-0.0529-0.01058-0.0635-0.01058-0.0212-0.03175-0.0212-0.07408 0-0.30692 0.29633-0.22225 0.28575-0.51858 0.77258-0.29633 0.48684-0.58208 1.1007t-0.48683 1.2594z"/>
   <path d="m101.28 127.81q-0.45508 0-0.64558-0.28574-0.1905-0.27517-0.1905-0.67734 0-0.32808 0.10583-0.67733 0.10584-0.34925 0.27517-0.65616 0.17992-0.30692 0.39158-0.49742 0.22225-0.1905 0.4445-0.1905 0.0529 0 0.10583 0.0212 0.0635 0.0106 0.11642 0.0318-0.0953 0.0847-0.23283 0.3175-0.127 0.22225-0.24342 0.51858-0.11641 0.28575-0.20108 0.5715-0.0741 0.28575-0.0741 0.48683 0 0.3175 0.10583 0.46567 0.10583 0.13758 0.27516 0.13758 0.22225 0 0.52917-0.23283 0.30692-0.24342 0.60325-0.61383-0.29633-0.24342-0.46567-0.635-0.15875-0.40217-0.15875-0.81492 0-0.34925 0.11642-0.65616 0.127-0.30692 0.35983-0.48683 0.23283-0.1905 0.56092-0.1905 0.43391 0 0.58208 0.23283 0.14816 0.23283 0.14816 0.58208 0 0.41275-0.20108 0.92075-0.20108 0.49741-0.508 0.96308 0.1905 0.10583 0.40217 0.10583 0.16933 0 0.381-0.0635 0.21166-0.0741 0.41275-0.24341 0.21166-0.16934 0.33866-0.45509l0.127 0.10584q-0.21166 0.49741-0.60325 0.70908-0.381 0.20108-0.73024 0.20108-0.13759 0-0.26459-0.0212-0.127-0.0318-0.24341-0.0847-0.35984 0.47625-0.79375 0.79375-0.42333 0.31749-0.8255 0.31749zm1.5558-1.5557q0.26458-0.39158 0.43391-0.81491 0.17992-0.43392 0.17992-0.81492 0-0.30691-0.0952-0.4445-0.0847-0.14816-0.22225-0.14816-0.21167 0-0.43392 0.30691-0.22224 0.30692-0.22224 0.77258 0 0.30692 0.0847 0.62442 0.0953 0.30691 0.27517 0.51858z"/>
   <path d="m103.75 130.43q-0.0847 0-0.15875-0.0953-0.0847-0.0847-0.127-0.1905-0.0423-0.0952-0.0423-0.11641 0.14816-0.51858 0.29633-0.93133 0.13758-0.40217 0.28575-0.83608 0.13758-0.42334 0.27516-0.99483 0.13759-0.58209 0.28575-1.4393 0.14817-0.85725 0.29633-2.1272 0.0106-0.0952 0.0423-0.13758 0.0318-0.0423 0.15875-0.0423 0.27516 0 0.39158 0.15875 0.11642 0.14816 0.11642 0.32808 0 0.14817-0.0635 0.52916-0.0635 0.381-0.17992 0.89959 0.17992-0.34925 0.4445-0.70909 0.27516-0.35983 0.62441-0.60324 0.34925-0.24342 0.762-0.24342 0.46567 0 0.762 0.33867 0.30691 0.32808 0.30691 0.86783 0 0.41275-0.1905 0.87841-0.17991 0.45508-0.51858 0.86783-0.32808 0.40217-0.78316 0.65617-0.45508 0.25399-1.0054 0.25399-0.27517 0-0.4445-0.0635-0.16934-0.0635-0.16934-0.12699 0-0.0423 0.0741-0.0529 0.0847 0 0.1905 0 0.42333 0 0.80433-0.20108 0.39158-0.21167 0.6985-0.55034 0.30691-0.33866 0.47624-0.75141 0.17992-0.41275 0.17992-0.81491 0-0.33867-0.14817-0.5715-0.13758-0.24342-0.45508-0.24342-0.27516 0-0.55033 0.17992-0.26458 0.16933-0.508 0.4445-0.23283 0.26458-0.42333 0.56091-0.17992 0.28575-0.27517 0.51858-0.1905 0.79375-0.38099 1.524-0.1905 0.74083-0.37042 1.3335-0.16933 0.60325-0.30692 0.98425-0.14816 0.381-0.24341 0.46567-0.0529 0.0529-0.127 0.0529z"/>
  </g>
 </g>
</svg>
