<?xml version="1.0" encoding="UTF-8" standalone="no"?>
<svg
   width="122.1mm"
   height="27.604mm"
   version="1.1"
   viewBox="0 0 122.1 27.604"
   id="svg59"
   sodipodi:docname="logo.svg"
   xmlns:inkscape="http://www.inkscape.org/namespaces/inkscape"
   xmlns:sodipodi="http://sodipodi.sourceforge.net/DTD/sodipodi-0.dtd"
   xmlns="http://www.w3.org/2000/svg"
   xmlns:svg="http://www.w3.org/2000/svg">
  <defs
     id="defs63" />
  <sodipodi:namedview
     id="namedview61"
     pagecolor="#ffffff"
     bordercolor="#666666"
     borderopacity="1.0"
     inkscape:showpageshadow="2"
     inkscape:pageopacity="0.0"
     inkscape:pagecheckerboard="0"
     inkscape:deskcolor="#d1d1d1"
     inkscape:document-units="mm"
     showgrid="false" />
  <g
     transform="translate(-44.333 -110.82)"
     id="g57">
    <ellipse
       cx="63.201"
       cy="126.5"
       rx="12.746"
       ry="11.31"
       fill="none"
       stroke="#000"
       stroke-width="1.2231"
       id="ellipse2" />
    <g
       transform="matrix(1.7225 0 0 1.7225 -43.927 -90.623)"
       id="g51">
      <g
         transform="matrix(.047508 0 0 .047508 50.004 111.68)"
         id="g49">
        <g
           id="g47">
          <g
             clip-rule="evenodd"
             fill-rule="evenodd"
             id="g45">
            <path
               d="m89.65 283.87-63.649 68.9h79.494l0.358-0.421 51.853-56.163c-9.851 0.291-19.801-0.356-29.849-1.912-12.606-1.977-25.341-5.445-38.207-10.404zm24.37-60.116-47.413 51.27h22.103c0.972 0 1.846 0.356 2.562 0.939 12.768 5.023 25.374 8.523 37.818 10.468 12.252 1.913 24.37 2.366 36.362 1.361l12.347-13.352h-24.823c-0.972-0.032-1.944-0.357-2.692-1.069-1.618-1.459-1.716-3.987-0.26-5.607l40.868-44.236c-12.413 4.99-25.117 7.551-38.046 7.583-12.737 0.032-25.701-2.431-38.826-7.357zm64.557-50.361h6.254l-33.414-40.479-32.179 40.479h4.699c0.323 0 0.614 0.031 0.905 0.097 0.748-0.162 1.559-0.13 2.334 0.194 8.686 3.468 17.175 5.186 25.44 5.153 8.233 0 16.365-1.718 24.37-5.121 0.52-0.227 1.04-0.323 1.591-0.323zm9.139 35.777c-2.106-0.129-3.794-1.848-3.794-3.985 0-1.103 0.456-2.074 1.168-2.788l4.861-5.898-12.445-14.453c-8.135 3.144-16.431 4.731-24.889 4.731-8.879 0.032-17.888-1.686-26.995-5.185l-27.546 33.477h14.841c0.614 0 1.201 0.13 1.751 0.39 12.996 5.185 25.731 7.745 38.176 7.713 12.508 0 24.823-2.625 36.913-7.778 2.007-0.843 4.341 0.098 5.215 2.107 0.165 0.42 0.26 0.842 0.292 1.295l8.882-9.625h-16.43zm199.44-35.681c0.292-0.065 0.583-0.097 0.905-0.097h4.699l-32.178-40.479-27.291 40.479h0.39c0.456 0.031 0.908 0.129 1.361 0.323 7.974 3.403 16.108 5.121 24.338 5.121 8.297 0.032 16.786-1.686 25.441-5.153 0.781-0.324 1.592-0.356 2.335-0.194zm10.21 41.969c0.516-0.26 1.102-0.39 1.716-0.39h14.842l-27.511-33.477c-9.143 3.499-18.152 5.217-27.031 5.185-8.457 0-16.754-1.588-24.889-4.731l-12.638 14.713 4.794 5.607c0.747 0.713 1.2 1.717 1.2 2.819 0 2.203-1.783 3.985-3.987 3.985h-16.234l9.107 9.853c0-0.519 0.094-1.037 0.322-1.522 0.842-2.01 3.176-2.95 5.188-2.107 12.118 5.153 24.401 7.778 36.909 7.778 12.445 0.032 25.185-2.528 38.212-7.713zm23.398 60.505c0.681-0.583 1.555-0.939 2.526-0.939h22.104l-47.383-51.27c-13.156 4.926-26.117 7.389-38.856 7.356-13.06-0.032-25.862-2.626-38.401-7.745l40.834 44.204c0.743 0.745 1.231 1.749 1.231 2.884 0 2.204-1.814 3.987-3.987 3.987h-24.857l12.314 13.352c12.09 1.005 24.307 0.583 36.622-1.361 12.444-1.945 25.05-5.445 37.853-10.468zm-14.456 76.807h79.694l-63.652-68.899c-12.831 4.959-25.602 8.427-38.208 10.403-10.111 1.588-20.158 2.203-30.072 1.912l51.723 55.969c0.192 0.194 0.354 0.388 0.515 0.615zm-30.431 45.986v-38.014h-11.988v38.014zm-91.194-242.9h7.551l-37.109-44.949-35.744 44.949h5.864c0.327 0 0.649 0.033 0.972 0.098 0.779-0.162 1.622-0.13 2.4 0.193 9.493 3.793 18.762 5.672 27.806 5.641 9.009 0 17.92-1.913 26.637-5.607 0.552-0.227 1.103-0.325 1.623-0.325zm12.153 45.76 0.031-0.031h0.032l0.066-0.033 0.031-0.032h0.031l0.032-0.032h0.066l0.031-0.033h0.032l0.066-0.031h0.031l0.032-0.033h0.097l0.032-0.032h0.097l0.063-0.032h0.066l0.063-0.033h0.066l0.032-0.032h0.195l0.063-0.032h0.61l16.499-0.033-31.6-36.686c-8.879 3.436-17.955 5.186-27.188 5.219-9.689 0-19.509-1.88-29.494-5.705l-28.743 34.938-1.85 2.234h16.884c0.649 0 1.232 0.163 1.751 0.422 14.196 5.64 28.129 8.426 41.71 8.394 13.623-3e-3 27.009-2.855 40.166-8.397zm25.472 65.82c0.744-0.648 1.653-0.939 2.594-0.939l24.822-0.032-52.238-56.552c-13.322 5.314-26.933 8.004-40.802 8.037-13.904 0.032-28.034-2.658-42.359-8.07l-52.274 56.585h24.857c0.972 0 1.846 0.356 2.562 0.939 23.008 9.075 45.596 13.547 67.729 13.515 22.072-0.033 43.785-4.57 65.109-13.483zm-134.46 7.844-70 75.769h276.08l-69.937-75.704c-21.844 8.912-44.108 13.481-66.794 13.514-22.748 0.033-45.854-4.44-69.35-13.579zm-51.498 86.865v38.014h12.023v-38.014z"
               id="path40" />
            <path
               d="m240.52 360.17v42.065h35.488l-0.6839-35.91z"
               stroke-width="5.5692"
               id="path42" />
            <path
               id="pines"
               d="m89.65 283.87-63.649 68.9h79.494l0.358-0.421 51.853-56.163c-9.851 0.291-19.801-0.356-29.849-1.912-12.606-1.977-25.341-5.445-38.207-10.404zm24.37-60.116-47.413 51.27h22.103c0.972 0 1.846 0.356 2.562 0.939 12.768 5.023 25.374 8.523 37.818 10.468 12.252 1.913 24.37 2.366 36.362 1.361l12.347-13.352h-24.823c-0.972-0.032-1.944-0.357-2.692-1.069-1.618-1.459-1.716-3.987-0.26-5.607l40.868-44.236c-12.413 4.99-25.117 7.551-38.046 7.583-12.737 0.032-25.701-2.431-38.826-7.357zm64.557-50.361h6.254l-33.414-40.479-32.179 40.479h4.699c0.323 0 0.614 0.031 0.905 0.097 0.748-0.162 1.559-0.13 2.334 0.194 8.686 3.468 17.175 5.186 25.44 5.153 8.233 0 16.365-1.718 24.37-5.121 0.52-0.227 1.04-0.323 1.591-0.323zm9.139 35.777c-2.106-0.129-3.794-1.848-3.794-3.985 0-1.103 0.456-2.074 1.168-2.788l4.861-5.898-12.445-14.453c-8.135 3.144-16.431 4.731-24.889 4.731-8.879 0.032-17.888-1.686-26.995-5.185l-27.546 33.477h14.841c0.614 0 1.201 0.13 1.751 0.39 12.996 5.185 25.731 7.745 38.176 7.713 12.508 0 24.823-2.625 36.913-7.778 2.007-0.843 4.341 0.098 5.215 2.107 0.165 0.42 0.26 0.842 0.292 1.295l8.882-9.625h-16.43zm199.44-35.681c0.292-0.065 0.583-0.097 0.905-0.097h4.699l-32.178-40.479-27.291 40.479h0.39c0.456 0.031 0.908 0.129 1.361 0.323 7.974 3.403 16.108 5.121 24.338 5.121 8.297 0.032 16.786-1.686 25.441-5.153 0.781-0.324 1.592-0.356 2.335-0.194zm10.21 41.969c0.516-0.26 1.102-0.39 1.716-0.39h14.842l-27.511-33.477c-9.143 3.499-18.152 5.217-27.031 5.185-8.457 0-16.754-1.588-24.889-4.731l-12.638 14.713 4.794 5.607c0.747 0.713 1.2 1.717 1.2 2.819 0 2.203-1.783 3.985-3.987 3.985h-16.234l9.107 9.853c0-0.519 0.094-1.037 0.322-1.522 0.842-2.01 3.176-2.95 5.188-2.107 12.118 5.153 24.401 7.778 36.909 7.778 12.445 0.032 25.185-2.528 38.212-7.713zm23.398 60.505c0.681-0.583 1.555-0.939 2.526-0.939h22.104l-47.383-51.27c-13.156 4.926-26.117 7.389-38.856 7.356-13.06-0.032-25.862-2.626-38.401-7.745l40.834 44.204c0.743 0.745 1.231 1.749 1.231 2.884 0 2.204-1.814 3.987-3.987 3.987h-24.857l12.314 13.352c12.09 1.005 24.307 0.583 36.622-1.361 12.444-1.945 25.05-5.445 37.853-10.468zm-14.456 76.807h79.694l-63.652-68.899c-12.831 4.959-25.602 8.427-38.208 10.403-10.111 1.588-20.158 2.203-30.072 1.912l51.723 55.969c0.192 0.194 0.354 0.388 0.515 0.615zm-121.62-196.91h7.551l-37.109-44.949-35.744 44.949h5.864c0.327 0 0.649 0.033 0.972 0.098 0.779-0.162 1.622-0.13 2.4 0.193 9.493 3.793 18.762 5.672 27.806 5.641 9.009 0 17.92-1.913 26.637-5.607 0.552-0.227 1.103-0.325 1.623-0.325zm12.153 45.76 0.031-0.031h0.032l0.066-0.033 0.031-0.032h0.031l0.032-0.032h0.066l0.031-0.033h0.032l0.066-0.031h0.031l0.032-0.033h0.097l0.032-0.032h0.097l0.063-0.032h0.066l0.063-0.033h0.066l0.032-0.032h0.195l0.063-0.032h0.61l16.499-0.033-31.6-36.686c-8.879 3.436-17.955 5.186-27.188 5.219-9.689 0-19.509-1.88-29.494-5.705l-28.743 34.938-1.85 2.234h16.884c0.649 0 1.232 0.163 1.751 0.422 14.196 5.64 28.129 8.426 41.71 8.394 13.623-3e-3 27.009-2.855 40.166-8.397zm25.472 65.82c0.744-0.648 1.653-0.939 2.594-0.939l24.822-0.032-52.238-56.552c-13.322 5.314-26.933 8.004-40.802 8.037-13.904 0.032-28.034-2.658-42.359-8.07l-52.274 56.585h24.857c0.972 0 1.846 0.356 2.562 0.939 23.008 9.075 45.596 13.547 67.729 13.515 22.072-0.033 43.785-4.57 65.109-13.483zm-134.46 7.844-70 75.769h276.08l-69.937-75.704c-21.844 8.912-44.108 13.481-66.794 13.514-22.748 0.033-45.854-4.44-69.35-13.579z"
               fill="#388e3c" />
          </g>
        </g>
      </g>
    </g>
    <text
       transform="matrix(.26458 0 0 .26458 44.333 110.82)"
       fill="black"
       font-family="sans-serif"
       font-size="40px"
       style="line-height:1.25;shape-inside:url(#rect24864);white-space:pre"
       xml:space="preserve"
       id="text53" />
    <text
       transform="matrix(.26458 0 0 .26458 44.333 110.82)"
       fill="black"
       font-family="sans-serif"
       font-size="40px"
       style="line-height:1.25;shape-inside:url(#rect26022);white-space:pre"
       xml:space="preserve"
       id="text55" />
    <text
       xml:space="preserve"
       style="font-style:normal;font-weight:normal;font-size:10.5833px;line-height:1.25;font-family:sans-serif;fill:#000000;fill-opacity:1;stroke:none;stroke-width:0.264583"
       x="88.833908"
       y="115.66364"
       id="text277"><tspan
         sodipodi:role="line"
         id="tspan275"
         style="stroke-width:0.264583"
         x="88.833908"
         y="115.66364">Carpatian</tspan></text>
    <text
       xml:space="preserve"
       style="font-style:normal;font-weight:normal;font-size:10.5833px;line-height:1.25;font-family:sans-serif;fill:#000000;fill-opacity:1;stroke:none;stroke-width:0.264583"
       x="103.26391"
       y="124.84637"
       id="text281"><tspan
         sodipodi:role="line"
         id="tspan279"
         style="stroke-width:0.264583"
         x="103.26391"
         y="124.84637">Shop</tspan></text>
  </g>
</svg>
